<svg width="120" height="120" version="1.1" xmlns="http://www.w3.org/2000/svg" desc="Created with imagetracer.js version 1.2.6" ><path fill="rgb(225,226,227)" stroke="rgb(225,226,227)" stroke-width="1" opacity="1" d="M 64.5 5 L 65.5 7 L 64.5 5 Z " /><path fill="rgb(225,226,227)" stroke="rgb(225,226,227)" stroke-width="1" opacity="1" d="M 65.5 13 L 64.5 15 L 65.5 13 Z " /><path fill="rgb(225,226,227)" stroke="rgb(225,226,227)" stroke-width="1" opacity="1" d="M 64.5 16 L 65 21.5 L 64 21.5 L 64.5 16 Z " /><path fill="rgb(225,226,227)" stroke="rgb(225,226,227)" stroke-width="1" opacity="1" d="M 94.5 25 L 95 63.5 L 94 63.5 L 94.5 25 Z " /><path fill="rgb(225,226,227)" stroke="rgb(225,226,227)" stroke-width="1" opacity="1" d="M 73.5 29 L 74 35.5 L 73 35.5 L 73.5 29 Z " /><path fill="rgb(225,226,227)" stroke="rgb(225,226,227)" stroke-width="1" opacity="1" d="M 24.5 37 L 23.5 39 L 24.5 37 Z " /><path fill="rgb(225,226,227)" stroke="rgb(225,226,227)" stroke-width="1" opacity="1" d="M 22.5 40 L 23 49.5 L 22 49.5 L 22.5 40 Z " /><path fill="rgb(225,226,227)" stroke="rgb(225,226,227)" stroke-width="1" opacity="1" d="M 81.5 40 L 82 49.5 L 81 49.5 L 81.5 40 Z " /><path fill="rgb(225,226,227)" stroke="rgb(225,226,227)" stroke-width="1" opacity="1" d="M 23.5 51 L 26 52.5 L 24.5 53 L 23.5 51 Z " /><path fill="rgb(225,226,227)" stroke="rgb(225,226,227)" stroke-width="1" opacity="1" d="M 82.5 52 L 90 52.5 L 82.5 53 L 82.5 52 Z " /><path fill="rgb(225,226,227)" stroke="rgb(225,226,227)" stroke-width="1" opacity="1" d="M 73.5 54 L 74 59.5 L 73 59.5 L 73.5 54 Z " /><path fill="rgb(225,226,227)" stroke="rgb(225,226,227)" stroke-width="1" opacity="1" d="M 31.5 65 L 93 65.5 L 31.5 66 L 31.5 65 Z " /><path fill="rgb(225,226,227)" stroke="rgb(225,226,227)" stroke-width="1" opacity="1" d="M 40.5 71 L 41 79.5 L 40 79.5 L 40.5 71 Z " /><path fill="rgb(225,226,227)" stroke="rgb(225,226,227)" stroke-width="1" opacity="1" d="M 52.5 71 L 53 79.5 L 52 79.5 L 52.5 71 Z " /><path fill="rgb(225,226,227)" stroke="rgb(225,226,227)" stroke-width="1" opacity="1" d="M 55.5 71 L 56 79.5 L 55 79.5 L 55.5 71 Z " /><path fill="rgb(225,226,227)" stroke="rgb(225,226,227)" stroke-width="1" opacity="1" d="M 94.5 76 L 95.5 78 L 94.5 76 Z " /><path fill="rgb(225,226,227)" stroke="rgb(225,226,227)" stroke-width="1" opacity="1" d="M 89.5 77 L 91.5 80 L 89.5 77 Z " /><path fill="rgb(225,226,227)" stroke="rgb(225,226,227)" stroke-width="1" opacity="1" d="M 41.5 82 L 53 82 L 53 88.5 L 52 88.5 L 52 83 L 41 83 L 40.5 90 L 40 83.5 L 41.5 82 Z " /><path fill="rgb(225,226,227)" stroke="rgb(225,226,227)" stroke-width="1" opacity="1" d="M 56.5 82 L 68 82.5 L 56 83 L 55.5 89 L 55 83.5 L 56.5 82 Z " /><path fill="rgb(225,226,227)" stroke="rgb(225,226,227)" stroke-width="1" opacity="1" d="M 71.5 82 L 83 82.5 L 71.5 83 L 71.5 82 Z " /><path fill="rgb(225,226,227)" stroke="rgb(225,226,227)" stroke-width="1" opacity="1" d="M 27.5 87 L 30 88.5 L 28.5 88 L 26.5 89 L 27.5 87 Z " /><path fill="rgb(225,226,227)" stroke="rgb(225,226,227)" stroke-width="1" opacity="1" d="M 22.5 90 L 23.5 92 L 22.5 90 Z " /><path fill="rgb(225,226,227)" stroke="rgb(225,226,227)" stroke-width="1" opacity="1" d="M 33.5 90 L 32.5 92 L 33.5 90 Z " /><path fill="rgb(225,226,227)" stroke="rgb(225,226,227)" stroke-width="1" opacity="1" d="M 96.5 91 L 99 92.5 L 97.5 93 L 96.5 91 Z " /><path fill="rgb(225,226,227)" stroke="rgb(225,226,227)" stroke-width="1" opacity="1" d="M 40.5 93 L 41 99 L 52 99 L 52 93.5 L 53 93.5 Q 54.3 98.8 51.5 100 L 41.5 100 L 40 98.5 L 40.5 93 Z " /><path fill="rgb(225,226,227)" stroke="rgb(225,226,227)" stroke-width="1" opacity="1" d="M 55.5 93 L 56 99 L 68 99.5 L 56.5 100 Q 53.4 98.4 55.5 93 Z " /><path fill="rgb(225,226,227)" stroke="rgb(225,226,227)" stroke-width="1" opacity="1" d="M 71.5 99 L 83 99.5 L 71.5 100 L 71.5 99 Z " /><path fill="rgb(225,226,227)" stroke="rgb(225,226,227)" stroke-width="1" opacity="1" d="M 36.5 102 L 37.5 104 L 36.5 102 Z " /><path fill="rgb(225,226,227)" stroke="rgb(225,226,227)" stroke-width="1" opacity="1" d="M 41.5 109 L 42 111 L 57 111.5 L 42.5 112 L 41.5 109 Z " /><path fill="rgb(225,226,227)" stroke="rgb(225,226,227)" stroke-width="1" opacity="1" d="M 67.5 111 L 82 111.5 L 67.5 112 L 67.5 111 Z " /><path fill="rgb(8,40,64)" stroke="rgb(8,40,64)" stroke-width="1" opacity="1" d="M 65.5 12 L 64 14.5 L 63.5 23 L 63 14.5 L 65.5 12 Z " /><path fill="rgb(8,40,64)" stroke="rgb(8,40,64)" stroke-width="1" opacity="1" d="M 91.5 24 L 94 24.5 L 92 32.5 L 92.5 34 L 91 31.5 Q 93.3 30.2 92 25.5 L 91.5 24 Z " /><path fill="rgb(8,40,64)" stroke="rgb(8,40,64)" stroke-width="1" opacity="1" d="M 72.5 26 L 73 37.5 L 72 37.5 L 72.5 26 Z " /><path fill="rgb(8,40,64)" stroke="rgb(8,40,64)" stroke-width="1" opacity="1" d="M 91.5 35 L 93 37.5 L 92 37.5 L 91.5 35 Z " /><path fill="rgb(8,40,64)" stroke="rgb(8,40,64)" stroke-width="1" opacity="1" d="M 96.5 38 L 99 39.5 L 97.5 40 L 96.5 38 Z " /><path fill="rgb(8,40,64)" stroke="rgb(8,40,64)" stroke-width="1" opacity="1" d="M 23.5 39 L 24 48.5 L 23 48.5 L 23.5 39 Z " /><path fill="rgb(8,40,64)" stroke="rgb(8,40,64)" stroke-width="1" opacity="1" d="M 64.5 39 L 65 50 L 79 50.5 L 64 51 L 64.5 39 Z " /><path fill="rgb(8,40,64)" stroke="rgb(8,40,64)" stroke-width="1" opacity="1" d="M 92.5 40 L 93 41.5 L 93 43.5 L 92 48.5 L 92.5 50 Q 90 49 91 44.5 L 91 42.5 L 92.5 40 Z " /><path fill="rgb(8,40,64)" stroke="rgb(8,40,64)" stroke-width="1" opacity="1" d="M 23.5 50 L 26 50.5 Q 23.9 53.8 23.5 50 Z " /><path fill="rgb(8,40,64)" stroke="rgb(8,40,64)" stroke-width="1" opacity="1" d="M 44.5 50 L 58 50.5 L 44.5 51 L 44.5 50 Z " /><path fill="rgb(8,40,64)" stroke="rgb(8,40,64)" stroke-width="1" opacity="1" d="M 72.5 52 L 73 62 L 71 61.5 L 72 60.5 L 72.5 52 Z " /><path fill="rgb(8,40,64)" stroke="rgb(8,40,64)" stroke-width="1" opacity="1" d="M 92.5 52 L 93 57.5 L 92 57.5 L 91 54.5 L 92.5 52 Z " /><path fill="rgb(8,40,64)" stroke="rgb(8,40,64)" stroke-width="1" opacity="1" d="M 34.5 63 L 50 63.5 L 34.5 64 L 34.5 63 Z " /><path fill="rgb(8,40,64)" stroke="rgb(8,40,64)" stroke-width="1" opacity="1" d="M 53.5 63 L 70 63.5 L 53.5 64 L 53.5 63 Z " /><path fill="rgb(8,40,64)" stroke="rgb(8,40,64)" stroke-width="1" opacity="1" d="M 73.5 63 L 90 63.5 L 73.5 64 L 73.5 63 Z " /><path fill="rgb(8,40,64)" stroke="rgb(8,40,64)" stroke-width="1" opacity="1" d="M 38.5 67 L 86 67.5 L 38.5 68 L 38.5 67 Z " /><path fill="rgb(8,40,64)" stroke="rgb(8,40,64)" stroke-width="1" opacity="1" d="M 89.5 76 L 90.5 78 L 89.5 76 Z " /><path fill="rgb(8,40,64)" stroke="rgb(8,40,64)" stroke-width="1" opacity="1" d="M 36.5 77 L 38 77.5 L 38 85.5 L 37 85.5 Q 37.6 78.8 36.5 77 Z " /><path fill="rgb(8,40,64)" stroke="rgb(8,40,64)" stroke-width="1" opacity="1" d="M 37.5 87 L 38 90.5 L 37 90.5 L 37.5 87 Z " /><path fill="rgb(8,40,64)" stroke="rgb(8,40,64)" stroke-width="1" opacity="1" d="M 24.5 89 L 26.5 92 L 23 90.5 L 24.5 89 Z " /><path fill="rgb(8,40,64)" stroke="rgb(8,40,64)" stroke-width="1" opacity="1" d="M 31.5 89 Q 34.5 90.5 31.5 92 Q 28.5 90.5 31.5 89 Z " /><path fill="rgb(8,40,64)" stroke="rgb(8,40,64)" stroke-width="1" opacity="1" d="M 93.5 89 L 92.5 91 L 93.5 89 Z " /><path fill="rgb(8,40,64)" stroke="rgb(8,40,64)" stroke-width="1" opacity="1" d="M 69.5 90 L 71 92.5 L 68 92.5 L 69.5 90 Z " /><path fill="rgb(8,40,64)" stroke="rgb(8,40,64)" stroke-width="1" opacity="1" d="M 37.5 92 L 38 100.5 L 36 101.5 L 37.5 92 Z " /><path fill="rgb(8,40,64)" stroke="rgb(8,40,64)" stroke-width="1" opacity="1" d="M 40.5 101 L 49 101.5 L 40.5 102 L 40.5 101 Z " /><path fill="rgb(8,40,64)" stroke="rgb(8,40,64)" stroke-width="1" opacity="1" d="M 56.5 101 L 68 101.5 L 56.5 102 L 56.5 101 Z " /><path fill="rgb(8,40,64)" stroke="rgb(8,40,64)" stroke-width="1" opacity="1" d="M 74.5 101 L 84 101.5 L 74.5 102 L 74.5 101 Z " /><path fill="rgb(8,40,64)" stroke="rgb(8,40,64)" stroke-width="1" opacity="1" d="M 43.5 109 L 45.5 109 L 48.5 110 L 50.5 109 L 53.5 110 L 55 109.5 L 54.5 111 L 44.5 111 L 42 110.5 L 43.5 109 Z " /><path fill="rgb(8,40,64)" stroke="rgb(8,40,64)" stroke-width="1" opacity="1" d="M 68.5 109 L 70.5 110 L 72.5 109 L 75.5 110 L 77.5 109 L 80 110.5 L 69.5 111 L 68.5 109 Z " /><path fill="rgb(0,31,58)" stroke="rgb(0,31,58)" stroke-width="1" opacity="1" d="M 60.5 6 Q 63.8 4.9 63 7.5 L 65 7.5 L 66 9.5 L 63 14.5 L 63 22.5 L 64.5 24 L 90.5 24 L 91.5 25 Q 92.8 22.7 94 25.5 L 94 37.5 L 93 39.5 L 94 40.5 L 94 60.5 L 91.5 64 Q 89.3 64.8 90 62.5 L 92 59.5 L 91 55.5 L 92 55.5 L 92.5 58 L 93 52.5 L 92 52.5 L 91.5 54 L 91 52 Q 82.7 53.3 79 51 L 79.5 46 L 81.5 51 L 90.5 51 L 91 49.5 Q 93.6 48.1 93 43.5 L 91 43.5 L 93 40.5 L 91 40.5 L 90.5 39 L 81.5 39 L 80 39.5 L 81.5 38 L 91 38 L 92 35.5 L 91 33.5 L 92 31.5 L 91 26 L 72 26 L 72 37.5 L 71 37.5 L 71 26 L 52 26 L 51.5 38 L 51 26 L 33.5 26 L 32 27.5 Q 34.8 29.3 33 35.5 Q 30.7 36.8 33.5 38 L 36 38.5 L 33 39 L 33 51 L 41.5 51 L 41.5 52 L 33.5 52 L 32 53.5 L 33 55.5 L 33 57.5 L 32 59.5 L 32.5 62 L 36 62.5 L 30 64 L 30 25.5 L 31.5 24 L 60.5 24 L 61 23.5 L 61 14.5 L 58 9.5 L 61 7.5 L 60.5 6 Z M 93 25 L 92 31 L 93 31 L 93 25 Z " /><path fill="rgb(0,31,58)" stroke="rgb(0,31,58)" stroke-width="1" opacity="1" d="M 24 38 L 27 39.5 L 27 50.5 L 25.5 52 Q 21.3 50.2 24 48.5 L 24 38 Z " /><path fill="rgb(0,31,58)" stroke="rgb(0,31,58)" stroke-width="1" opacity="1" d="M 38.5 38 L 42 38.5 L 38.5 39 L 38.5 38 Z " /><path fill="rgb(0,31,58)" stroke="rgb(0,31,58)" stroke-width="1" opacity="1" d="M 58.5 38 L 64 39.5 L 63 40.5 L 63 49.5 L 63.5 51 L 58.5 52 L 58 50.5 L 59 49.5 L 59 39.5 L 58.5 38 Z " /><path fill="rgb(0,31,58)" stroke="rgb(0,31,58)" stroke-width="1" opacity="1" d="M 97 40 L 100 40.5 L 99 42.5 L 100 45.5 L 99 48.5 L 99.5 50 L 97.5 51 L 97 40 Z " /><path fill="rgb(0,31,58)" stroke="rgb(0,31,58)" stroke-width="1" opacity="1" d="M 51.5 52 L 52 60.5 L 51 60.5 L 51.5 52 Z " /><path fill="rgb(0,31,58)" stroke="rgb(0,31,58)" stroke-width="1" opacity="1" d="M 71.5 52 L 72 60.5 L 71 60.5 L 71.5 52 Z " /><path fill="rgb(0,31,58)" stroke="rgb(0,31,58)" stroke-width="1" opacity="1" d="M 37.5 62 L 41 62.5 L 37.5 63 L 37.5 62 Z " /><path fill="rgb(0,31,58)" stroke="rgb(0,31,58)" stroke-width="1" opacity="1" d="M 50 62 Q 54.1 60.7 53 64 Q 48.9 65.3 50 62 Z " /><path fill="rgb(0,31,58)" stroke="rgb(0,31,58)" stroke-width="1" opacity="1" d="M 57.5 62 L 60 62.5 L 57.5 63 L 57.5 62 Z " /><path fill="rgb(0,31,58)" stroke="rgb(0,31,58)" stroke-width="1" opacity="1" d="M 70 62 Q 74.1 60.7 73 64 Q 68.9 65.3 70 62 Z " /><path fill="rgb(0,31,58)" stroke="rgb(0,31,58)" stroke-width="1" opacity="1" d="M 37.5 68 L 85.5 68 L 87 69.5 Q 84.7 70.7 87.5 72 L 91 74.5 Q 90.3 76.8 92.5 76 L 95 77 Q 94.3 80.4 97 81.5 L 95 82.5 L 98 84.5 Q 97.3 87.1 100 86 L 100 90 L 98 89.5 Q 100.8 87.8 96.5 86 L 93 88.5 L 94 90.5 L 92 91.5 L 92.5 90 Q 89.5 90.9 91 86.5 L 94 82.5 L 93 79 Q 90.3 80.1 91 77.5 L 87.5 75 Q 84.7 76.3 87 77.5 L 87 101.5 L 85.5 103 L 74 103 L 74 107 L 77.5 108 L 79.5 107 L 79.5 109 L 81 109.5 L 78.5 110 L 76.5 109 L 73.5 110 L 71.5 109 L 69.5 110 L 68 108.5 Q 69.2 103.8 67 102.5 L 68 100 L 74.5 102 L 83.5 102 L 84 99.5 L 84 92.5 L 82.5 92 L 82.5 91 L 84 90.5 L 84 82 L 70.5 82 L 70 84.5 L 69 84.5 L 68 81.5 L 69 80.5 L 69 70 L 55.5 70 L 54 71.5 L 54 73.5 L 55 78.5 Q 52.7 79.8 55.5 81 L 59 81.5 L 54 82 L 55 85.5 L 54 89.5 Q 58 91.5 54 93.5 L 55.5 101 L 57 100.5 L 55 104.5 L 56 109.5 L 53.5 110 L 49.5 109 L 47.5 110 L 45.5 109 L 43 110.5 L 44.5 107 Q 52.3 109.4 50 103 L 38.5 103 L 37 101.5 L 38 100.5 L 38 92.5 L 38 90.5 L 37 86.5 L 38 85.5 L 38 77.5 L 37 75 L 30 80.5 L 29 83.5 L 31 87 Q 34 85.8 33 89.5 L 31 90.5 Q 33.7 88.8 29.5 87 L 26.5 87 L 23 89 L 24.5 86 L 26 85.5 L 25.5 84 L 28 82.5 Q 28.5 77 32.5 75 Q 34.8 75.8 34 73.5 L 37 72 L 38 69.5 L 37.5 68 Z M 41 70 L 39 72 L 39 80 L 40 81 L 39 83 Q 37 89 40 91 L 39 94 Q 38 100 40 102 L 49 102 L 50 101 L 53 101 L 53 82 L 50 82 L 53 81 L 53 70 L 41 70 Z M 70 70 L 70 81 L 84 81 L 84 70 L 70 70 Z " /><path fill="rgb(0,31,58)" stroke="rgb(0,31,58)" stroke-width="1" opacity="1" d="M 41.5 81 L 49 81.5 L 41.5 82 L 41.5 81 Z " /><path fill="rgb(0,31,58)" stroke="rgb(0,31,58)" stroke-width="1" opacity="1" d="M 68.5 91 L 71 91.5 L 69.5 99 L 68.5 91 Z " /><path fill="rgb(0,31,58)" stroke="rgb(0,31,58)" stroke-width="1" opacity="1" d="M 59.5 102 L 66 102.5 L 59.5 103 L 59.5 102 Z " /><path fill="rgb(255,255,255)" stroke="rgb(255,255,255)" stroke-width="1" opacity="1" d="M 0 0 L 120 0 L 120 120 L 0 120 L 0 0 Z M 61 5 L 57 9 Q 56 14 60 15 L 60 23 L 60 23 L 31 23 L 29 25 L 29 65 L 32 66 L 93 66 L 95 64 L 95 26 L 94 25 L 94 23 L 65 23 L 65 22 Q 66 17 64 16 L 67 12 L 66 7 Q 65 4 61 5 Z M 25 37 L 22 41 Q 21 48 23 52 Q 24 54 28 53 L 28 38 L 25 37 Z M 96 37 L 96 53 L 99 53 L 101 51 L 101 40 Q 100 36 96 37 Z M 36 67 L 36 71 L 34 72 L 22 87 L 22 91 L 26 93 L 28 92 L 27 90 Q 26 87 29 88 Q 28 92 31 93 L 34 91 Q 35 85 31 84 L 31 82 L 36 76 L 36 103 L 38 104 L 48 104 Q 49 108 44 106 L 41 110 L 43 112 L 57 112 L 57 104 L 67 104 L 67 112 L 68 112 L 82 112 Q 83 107 80 106 Q 74 108 75 104 L 86 104 L 88 103 L 89 76 L 93 83 Q 94 85 91 84 L 90 87 Q 89 92 93 93 L 95 92 L 94 89 Q 96 86 97 89 L 96 92 L 99 93 Q 102 92 101 86 L 98 84 L 96 78 L 90 72 L 88 69 L 87 67 L 36 67 Z " /><path fill="rgb(255,255,255)" stroke="rgb(255,255,255)" stroke-width="1" opacity="1" d="M 34 27 L 50 27 L 50 37 L 34 37 L 34 27 Z " /><path fill="rgb(255,255,255)" stroke="rgb(255,255,255)" stroke-width="1" opacity="1" d="M 53 27 L 70 27 L 70 37 L 53 37 L 53 27 Z " /><path fill="rgb(255,255,255)" stroke="rgb(255,255,255)" stroke-width="1" opacity="1" d="M 73 27 L 90 27 L 90 37 L 73 36.5 Q 75.5 35 74 29.5 L 73 27 Z " /><path fill="rgb(255,255,255)" stroke="rgb(255,255,255)" stroke-width="1" opacity="1" d="M 34 40 L 42 40 L 42 50 L 34 50 L 34 40 Z " /><path fill="rgb(255,255,255)" stroke="rgb(255,255,255)" stroke-width="1" opacity="1" d="M 82 40 L 90 40 L 90 50 L 82 50 L 82 40 Z " /><path fill="rgb(255,255,255)" stroke="rgb(255,255,255)" stroke-width="1" opacity="1" d="M 34 53 L 50 53 L 50 61 L 34 61 L 34 53 Z " /><path fill="rgb(255,255,255)" stroke="rgb(255,255,255)" stroke-width="1" opacity="1" d="M 53 53 L 70 53 L 70 61 L 53 61 L 53 53 Z " /><path fill="rgb(255,255,255)" stroke="rgb(255,255,255)" stroke-width="1" opacity="1" d="M 73.5 53 L 90 53 L 90 61 L 73 60.5 Q 75.3 59.3 74 54.5 L 73.5 53 Z " /><path fill="rgb(255,255,255)" stroke="rgb(255,255,255)" stroke-width="1" opacity="1" d="M 41 71 L 52 71 L 52 80 L 41 80 L 41 71 Z " /><path fill="rgb(255,255,255)" stroke="rgb(255,255,255)" stroke-width="1" opacity="1" d="M 56 71 L 68 71 L 68 80 L 56 80 L 56 71 Z " /><path fill="rgb(255,255,255)" stroke="rgb(255,255,255)" stroke-width="1" opacity="1" d="M 71 71 L 83 71 L 83 80 L 71 80 L 71 71 Z " /><path fill="rgb(255,255,255)" stroke="rgb(255,255,255)" stroke-width="1" opacity="1" d="M 41 83 L 52 83 L 52 88.5 L 52.5 90 L 41 90 L 41 83 Z " /><path fill="rgb(255,255,255)" stroke="rgb(255,255,255)" stroke-width="1" opacity="1" d="M 56 83 L 68 83 L 68 90 L 55 89.5 L 56 83 Z " /><path fill="rgb(255,255,255)" stroke="rgb(255,255,255)" stroke-width="1" opacity="1" d="M 71 83 L 83 83 L 83 90 L 71 90 L 71 83 Z " /><path fill="rgb(255,255,255)" stroke="rgb(255,255,255)" stroke-width="1" opacity="1" d="M 41 93 L 52 93 L 52 99 L 41 99 L 41 93 Z " /><path fill="rgb(255,255,255)" stroke="rgb(255,255,255)" stroke-width="1" opacity="1" d="M 56 93 L 68 93 L 68 99 L 56 99 L 56 93 Z " /><path fill="rgb(255,255,255)" stroke="rgb(255,255,255)" stroke-width="1" opacity="1" d="M 71 93 L 83 93 L 83 99 L 71 99 L 71 93 Z " /><path fill="rgb(0,21,50)" stroke="rgb(0,21,50)" stroke-width="1" opacity="1" d="M 59.5 7 L 58.5 9 L 59.5 7 Z " /><path fill="rgb(0,21,50)" stroke="rgb(0,21,50)" stroke-width="1" opacity="1" d="M 58.5 10 L 60 12.5 L 58 11.5 L 58.5 10 Z " /><path fill="rgb(0,21,50)" stroke="rgb(0,21,50)" stroke-width="1" opacity="1" d="M 42.5 38 L 44.5 38 L 57.5 38 L 58.5 39 L 59.5 38 L 80.5 38 L 80.5 39 L 59 39 L 59 49.5 L 58 49.5 L 58 39 L 44 39 L 43.5 50 L 43 39.5 L 42.5 38 Z " /><path fill="rgb(0,21,50)" stroke="rgb(0,21,50)" stroke-width="1" opacity="1" d="M 98.5 38 L 99.5 40 L 98.5 38 Z " /><path fill="rgb(0,21,50)" stroke="rgb(0,21,50)" stroke-width="1" opacity="1" d="M 63.5 40 L 64 49.5 L 63 49.5 L 63.5 40 Z " /><path fill="rgb(0,21,50)" stroke="rgb(0,21,50)" stroke-width="1" opacity="1" d="M 80.5 40 L 81 49.5 L 80 49.5 L 80.5 40 Z " /><path fill="rgb(0,21,50)" stroke="rgb(0,21,50)" stroke-width="1" opacity="1" d="M 99.5 50 L 98.5 52 L 97 51.5 L 99.5 50 Z " /><path fill="rgb(0,21,50)" stroke="rgb(0,21,50)" stroke-width="1" opacity="1" d="M 44.5 51 L 58 51.5 L 44.5 52 L 44.5 51 Z " /><path fill="rgb(0,21,50)" stroke="rgb(0,21,50)" stroke-width="1" opacity="1" d="M 59.5 51 L 81 51.5 L 59.5 52 L 59.5 51 Z " /><path fill="rgb(0,21,50)" stroke="rgb(0,21,50)" stroke-width="1" opacity="1" d="M 93.5 61 L 94 63.5 L 92.5 65 L 31.5 65 L 31.5 64 L 92.5 64 L 93.5 61 Z " /><path fill="rgb(0,21,50)" stroke="rgb(0,21,50)" stroke-width="1" opacity="1" d="M 41.5 62 L 46 62.5 L 41.5 63 L 41.5 62 Z " /><path fill="rgb(0,21,50)" stroke="rgb(0,21,50)" stroke-width="1" opacity="1" d="M 62.5 62 L 67 62.5 L 62.5 63 L 62.5 62 Z " /><path fill="rgb(0,21,50)" stroke="rgb(0,21,50)" stroke-width="1" opacity="1" d="M 83.5 62 L 87 62.5 L 83.5 63 L 83.5 62 Z " /><path fill="rgb(0,21,50)" stroke="rgb(0,21,50)" stroke-width="1" opacity="1" d="M 39.5 71 L 40 79.5 L 39 79.5 L 39.5 71 Z " /><path fill="rgb(0,21,50)" stroke="rgb(0,21,50)" stroke-width="1" opacity="1" d="M 33.5 73 L 29.5 78 L 33.5 73 Z " /><path fill="rgb(0,21,50)" stroke="rgb(0,21,50)" stroke-width="1" opacity="1" d="M 54.5 73 L 55 76.5 L 54 76.5 L 54.5 73 Z " /><path fill="rgb(0,21,50)" stroke="rgb(0,21,50)" stroke-width="1" opacity="1" d="M 90.5 73 L 93.5 77 L 90.5 73 Z " /><path fill="rgb(0,21,50)" stroke="rgb(0,21,50)" stroke-width="1" opacity="1" d="M 31.5 79 L 30.5 81 L 31.5 79 Z " /><path fill="rgb(0,21,50)" stroke="rgb(0,21,50)" stroke-width="1" opacity="1" d="M 40.5 81 L 40 82.5 L 39.5 90 L 39 82.5 L 40.5 81 Z " /><path fill="rgb(0,21,50)" stroke="rgb(0,21,50)" stroke-width="1" opacity="1" d="M 24.5 85 L 23.5 87 L 24.5 85 Z " /><path fill="rgb(0,21,50)" stroke="rgb(0,21,50)" stroke-width="1" opacity="1" d="M 31.5 85 L 32.5 87 L 31.5 85 Z " /><path fill="rgb(0,21,50)" stroke="rgb(0,21,50)" stroke-width="1" opacity="1" d="M 54.5 86 L 55 89.5 L 54 89.5 L 54.5 86 Z " /><path fill="rgb(0,21,50)" stroke="rgb(0,21,50)" stroke-width="1" opacity="1" d="M 100.5 87 L 101 89.5 L 97 92 L 97.5 90 Q 98.7 92.3 100 89.5 L 100.5 87 Z " /><path fill="rgb(0,21,50)" stroke="rgb(0,21,50)" stroke-width="1" opacity="1" d="M 25.5 88 L 27 90.5 L 25 91.5 L 25 89.5 L 25.5 88 Z " /><path fill="rgb(0,21,50)" stroke="rgb(0,21,50)" stroke-width="1" opacity="1" d="M 30.5 88 L 31 89.5 L 30.5 92 Q 27.8 90.8 30 89.5 L 30.5 88 Z " /><path fill="rgb(0,21,50)" stroke="rgb(0,21,50)" stroke-width="1" opacity="1" d="M 45.5 91 L 49 91.5 L 45.5 92 L 45.5 91 Z " /><path fill="rgb(0,21,50)" stroke="rgb(0,21,50)" stroke-width="1" opacity="1" d="M 50.5 91 L 53 91.5 L 50.5 92 L 50.5 91 Z " /><path fill="rgb(0,21,50)" stroke="rgb(0,21,50)" stroke-width="1" opacity="1" d="M 61.5 91 L 68 91.5 L 61.5 92 L 61.5 91 Z " /><path fill="rgb(0,21,50)" stroke="rgb(0,21,50)" stroke-width="1" opacity="1" d="M 74.5 91 L 78 91.5 L 74.5 92 L 74.5 91 Z " /><path fill="rgb(0,21,50)" stroke="rgb(0,21,50)" stroke-width="1" opacity="1" d="M 39.5 93 L 40 100 L 53 100.5 L 40.5 101 Q 37.1 99.1 39.5 93 Z " /><path fill="rgb(0,21,50)" stroke="rgb(0,21,50)" stroke-width="1" opacity="1" d="M 54.5 93 L 55 96.5 L 54 96.5 L 54.5 93 Z " /><path fill="rgb(0,21,50)" stroke="rgb(0,21,50)" stroke-width="1" opacity="1" d="M 57.5 100 L 68 100.5 L 57.5 101 L 57.5 100 Z " /><path fill="rgb(0,21,50)" stroke="rgb(0,21,50)" stroke-width="1" opacity="1" d="M 71.5 100 L 83 100.5 L 71.5 101 L 71.5 100 Z " /><path fill="rgb(0,21,50)" stroke="rgb(0,21,50)" stroke-width="1" opacity="1" d="M 49.5 103 L 50 106.5 L 49 106.5 L 49.5 103 Z " /><path fill="rgb(0,21,50)" stroke="rgb(0,21,50)" stroke-width="1" opacity="1" d="M 55.5 104 L 56 108.5 L 55 108.5 L 55.5 104 Z " /><path fill="rgb(151,155,161)" stroke="rgb(151,155,161)" stroke-width="1" opacity="1" d="M 30.5 23 L 29.5 25 L 30.5 23 Z " /><path fill="rgb(151,155,161)" stroke="rgb(151,155,161)" stroke-width="1" opacity="1" d="M 34.5 26 L 34 27.5 L 33.5 37 L 33 27.5 L 34.5 26 Z " /><path fill="rgb(151,155,161)" stroke="rgb(151,155,161)" stroke-width="1" opacity="1" d="M 69.5 26 L 71 27.5 L 71 37.5 L 70 37.5 L 70 27.5 L 69.5 26 Z " /><path fill="rgb(151,155,161)" stroke="rgb(151,155,161)" stroke-width="1" opacity="1" d="M 25.5 37 L 28 38.5 L 28 51.5 L 26.5 53 L 27 51.5 L 27 38.5 L 25.5 38 L 25.5 37 Z " /><path fill="rgb(151,155,161)" stroke="rgb(151,155,161)" stroke-width="1" opacity="1" d="M 35.5 37 L 48 37.5 L 35.5 38 L 35.5 37 Z " /><path fill="rgb(151,155,161)" stroke="rgb(151,155,161)" stroke-width="1" opacity="1" d="M 54.5 37 L 61 37.5 L 54.5 38 L 54.5 37 Z " /><path fill="rgb(151,155,161)" stroke="rgb(151,155,161)" stroke-width="1" opacity="1" d="M 62.5 37 L 68 37.5 L 62.5 38 L 62.5 37 Z " /><path fill="rgb(151,155,161)" stroke="rgb(151,155,161)" stroke-width="1" opacity="1" d="M 75.5 37 L 80 37.5 L 75.5 38 L 75.5 37 Z " /><path fill="rgb(151,155,161)" stroke="rgb(151,155,161)" stroke-width="1" opacity="1" d="M 81.5 37 L 90 37.5 L 81.5 38 L 81.5 37 Z " /><path fill="rgb(151,155,161)" stroke="rgb(151,155,161)" stroke-width="1" opacity="1" d="M 100.5 39 L 101 50.5 L 100 50.5 L 100.5 39 Z " /><path fill="rgb(151,155,161)" stroke="rgb(151,155,161)" stroke-width="1" opacity="1" d="M 33.5 40 L 34 49.5 L 33 49.5 L 33.5 40 Z " /><path fill="rgb(151,155,161)" stroke="rgb(151,155,161)" stroke-width="1" opacity="1" d="M 35.5 52 L 48 52.5 L 35.5 53 L 35.5 52 Z " /><path fill="rgb(151,155,161)" stroke="rgb(151,155,161)" stroke-width="1" opacity="1" d="M 54.5 52 L 69 52.5 L 54.5 53 L 54.5 52 Z " /><path fill="rgb(151,155,161)" stroke="rgb(151,155,161)" stroke-width="1" opacity="1" d="M 70.5 52 L 71 60.5 L 69.5 62 L 53.5 62 L 52.5 60 L 53.5 61 L 70 61 L 70.5 52 Z " /><path fill="rgb(151,155,161)" stroke="rgb(151,155,161)" stroke-width="1" opacity="1" d="M 75.5 52 L 82 52.5 L 75.5 53 L 75.5 52 Z " /><path fill="rgb(151,155,161)" stroke="rgb(151,155,161)" stroke-width="1" opacity="1" d="M 33.5 53 L 34 61 L 50 61.5 L 34.5 62 L 33 60.5 L 33.5 53 Z " /><path fill="rgb(151,155,161)" stroke="rgb(151,155,161)" stroke-width="1" opacity="1" d="M 73.5 61 L 90 61.5 L 73.5 62 L 73.5 61 Z " /><path fill="rgb(151,155,161)" stroke="rgb(151,155,161)" stroke-width="1" opacity="1" d="M 87.5 68 L 89 71.5 L 87 70.5 L 87.5 68 Z " /><path fill="rgb(151,155,161)" stroke="rgb(151,155,161)" stroke-width="1" opacity="1" d="M 41.5 70 L 52 70.5 L 41.5 71 L 41.5 70 Z " /><path fill="rgb(151,155,161)" stroke="rgb(151,155,161)" stroke-width="1" opacity="1" d="M 56.5 70 L 67.5 70 L 69 71.5 L 68.5 80 L 68 71 L 56.5 71 L 56.5 70 Z " /><path fill="rgb(151,155,161)" stroke="rgb(151,155,161)" stroke-width="1" opacity="1" d="M 71.5 70 L 82.5 70 L 84 71.5 L 83.5 80 L 83 71 L 71.5 71 L 71.5 70 Z " /><path fill="rgb(151,155,161)" stroke="rgb(151,155,161)" stroke-width="1" opacity="1" d="M 33.5 72 L 32.5 74 L 33.5 72 Z " /><path fill="rgb(151,155,161)" stroke="rgb(151,155,161)" stroke-width="1" opacity="1" d="M 91.5 73 L 93.5 76 L 91.5 73 Z " /><path fill="rgb(151,155,161)" stroke="rgb(151,155,161)" stroke-width="1" opacity="1" d="M 30.5 75 L 29.5 77 L 30.5 75 Z " /><path fill="rgb(151,155,161)" stroke="rgb(151,155,161)" stroke-width="1" opacity="1" d="M 87.5 76 L 88 101.5 L 87 101.5 L 87.5 76 Z " /><path fill="rgb(151,155,161)" stroke="rgb(151,155,161)" stroke-width="1" opacity="1" d="M 83.5 82 L 84 89.5 L 82.5 91 L 71.5 91 L 71.5 90 L 83 90 L 83.5 82 Z " /><path fill="rgb(151,155,161)" stroke="rgb(151,155,161)" stroke-width="1" opacity="1" d="M 68.5 83 L 69 89.5 L 67.5 91 L 55.5 91 L 55.5 90 L 68 90 L 68.5 83 Z " /><path fill="rgb(151,155,161)" stroke="rgb(151,155,161)" stroke-width="1" opacity="1" d="M 24.5 84 L 23.5 86 L 24.5 84 Z " /><path fill="rgb(151,155,161)" stroke="rgb(151,155,161)" stroke-width="1" opacity="1" d="M 31.5 84 L 32.5 86 L 31.5 84 Z " /><path fill="rgb(151,155,161)" stroke="rgb(151,155,161)" stroke-width="1" opacity="1" d="M 22.5 87 L 23 89.5 L 22 89.5 L 22.5 87 Z " /><path fill="rgb(151,155,161)" stroke="rgb(151,155,161)" stroke-width="1" opacity="1" d="M 33.5 87 L 34 89.5 L 33 89.5 L 33.5 87 Z " /><path fill="rgb(151,155,161)" stroke="rgb(151,155,161)" stroke-width="1" opacity="1" d="M 96.5 87 L 97.5 89 L 96.5 87 Z " /><path fill="rgb(151,155,161)" stroke="rgb(151,155,161)" stroke-width="1" opacity="1" d="M 40.5 90 L 53 90.5 L 40.5 91 L 40.5 90 Z " /><path fill="rgb(151,155,161)" stroke="rgb(151,155,161)" stroke-width="1" opacity="1" d="M 68.5 93 L 69 98.5 L 68 98.5 L 68.5 93 Z " /><path fill="rgb(151,155,161)" stroke="rgb(151,155,161)" stroke-width="1" opacity="1" d="M 83.5 93 L 84 98.5 L 83 98.5 L 83.5 93 Z " /><path fill="rgb(151,155,161)" stroke="rgb(151,155,161)" stroke-width="1" opacity="1" d="M 38.5 103 L 49 103.5 L 38.5 104 L 38.5 103 Z " /><path fill="rgb(151,155,161)" stroke="rgb(151,155,161)" stroke-width="1" opacity="1" d="M 57.5 103 L 67 103.5 L 57 104 L 56.5 111 L 56 104.5 L 57.5 103 Z " /><path fill="rgb(151,155,161)" stroke="rgb(151,155,161)" stroke-width="1" opacity="1" d="M 75.5 103 L 86 103.5 L 75.5 104 L 75.5 103 Z " /><path fill="rgb(151,155,161)" stroke="rgb(151,155,161)" stroke-width="1" opacity="1" d="M 43.5 106 L 42.5 108 L 43.5 106 Z " /><path fill="rgb(106,187,74)" stroke="rgb(106,187,74)" stroke-width="1" opacity="1" d="M 45.5 39 L 57 39 L 57 50 L 44 49.5 Q 46.8 47.7 45 41.5 Q 42.8 40.3 45.5 39 Z " /><path fill="rgb(106,187,74)" stroke="rgb(106,187,74)" stroke-width="1" opacity="1" d="M 65 39 L 79 39 L 79 50 L 65 50 L 65 39 Z " /><path fill="rgb(75,88,97)" stroke="rgb(75,88,97)" stroke-width="1" opacity="1" d="M 59.5 6 L 58.5 8 L 59.5 6 Z " /><path fill="rgb(75,88,97)" stroke="rgb(75,88,97)" stroke-width="1" opacity="1" d="M 58.5 12 Q 62.8 13.8 61 21.5 L 60 21.5 Q 61 13.8 58.5 12 Z " /><path fill="rgb(75,88,97)" stroke="rgb(75,88,97)" stroke-width="1" opacity="1" d="M 31.5 23 L 60 23.5 L 31.5 24 L 31.5 23 Z " /><path fill="rgb(75,88,97)" stroke="rgb(75,88,97)" stroke-width="1" opacity="1" d="M 64.5 23 L 93 23.5 L 64.5 24 L 64.5 23 Z " /><path fill="rgb(75,88,97)" stroke="rgb(75,88,97)" stroke-width="1" opacity="1" d="M 29.5 25 L 30 63.5 L 31 64.5 L 29 63.5 L 29.5 25 Z " /><path fill="rgb(75,88,97)" stroke="rgb(75,88,97)" stroke-width="1" opacity="1" d="M 35.5 26 L 49 26.5 L 35.5 27 L 35.5 26 Z " /><path fill="rgb(75,88,97)" stroke="rgb(75,88,97)" stroke-width="1" opacity="1" d="M 54.5 26 L 69 26.5 L 54.5 27 L 54.5 26 Z " /><path fill="rgb(75,88,97)" stroke="rgb(75,88,97)" stroke-width="1" opacity="1" d="M 75.5 26 L 89.5 26 L 91 27.5 L 90.5 38 L 90 27 L 75.5 27 L 75.5 26 Z " /><path fill="rgb(75,88,97)" stroke="rgb(75,88,97)" stroke-width="1" opacity="1" d="M 50.5 27 L 51 37.5 L 50 37.5 L 50.5 27 Z " /><path fill="rgb(75,88,97)" stroke="rgb(75,88,97)" stroke-width="1" opacity="1" d="M 52.5 27 L 53 37.5 L 52 37.5 L 52.5 27 Z " /><path fill="rgb(75,88,97)" stroke="rgb(75,88,97)" stroke-width="1" opacity="1" d="M 33.5 39 L 41.5 39 L 43 40.5 L 43 49.5 L 41.5 51 L 33 50.5 L 42 50 L 42 40 L 33.5 40 L 33.5 39 Z " /><path fill="rgb(75,88,97)" stroke="rgb(75,88,97)" stroke-width="1" opacity="1" d="M 57.5 39 L 58 49.5 L 57 49.5 L 57.5 39 Z " /><path fill="rgb(75,88,97)" stroke="rgb(75,88,97)" stroke-width="1" opacity="1" d="M 81.5 39 L 89.5 39 L 91 40.5 L 91 49.5 L 89.5 51 L 81 50.5 L 90 50 L 90 40 L 81.5 40 L 81.5 39 Z " /><path fill="rgb(75,88,97)" stroke="rgb(75,88,97)" stroke-width="1" opacity="1" d="M 96.5 39 L 97 50.5 L 96 50.5 L 96.5 39 Z " /><path fill="rgb(75,88,97)" stroke="rgb(75,88,97)" stroke-width="1" opacity="1" d="M 44.5 41 L 45 48.5 L 44 48.5 L 44.5 41 Z " /><path fill="rgb(75,88,97)" stroke="rgb(75,88,97)" stroke-width="1" opacity="1" d="M 50.5 52 L 51 61.5 L 50 61.5 L 50.5 52 Z " /><path fill="rgb(75,88,97)" stroke="rgb(75,88,97)" stroke-width="1" opacity="1" d="M 52.5 52 L 53 59.5 L 52 59.5 L 52.5 52 Z " /><path fill="rgb(75,88,97)" stroke="rgb(75,88,97)" stroke-width="1" opacity="1" d="M 90.5 52 L 91 61.5 L 90 61.5 L 90.5 52 Z " /><path fill="rgb(75,88,97)" stroke="rgb(75,88,97)" stroke-width="1" opacity="1" d="M 37.5 67 L 36.5 69 L 37.5 67 Z " /><path fill="rgb(75,88,97)" stroke="rgb(75,88,97)" stroke-width="1" opacity="1" d="M 70.5 70 L 71 80 L 83 80.5 L 71.5 81 L 70 79.5 L 70.5 70 Z " /><path fill="rgb(75,88,97)" stroke="rgb(75,88,97)" stroke-width="1" opacity="1" d="M 35.5 75 Q 37.8 74.3 37 76.5 L 35.5 76 L 32 78.5 L 35.5 75 Z " /><path fill="rgb(75,88,97)" stroke="rgb(75,88,97)" stroke-width="1" opacity="1" d="M 36.5 78 L 37 99.5 L 36 99.5 L 36.5 78 Z " /><path fill="rgb(75,88,97)" stroke="rgb(75,88,97)" stroke-width="1" opacity="1" d="M 41.5 80 L 53 80.5 L 41.5 81 L 41.5 80 Z " /><path fill="rgb(75,88,97)" stroke="rgb(75,88,97)" stroke-width="1" opacity="1" d="M 55.5 80 L 68 80.5 L 55.5 81 L 55.5 80 Z " /><path fill="rgb(75,88,97)" stroke="rgb(75,88,97)" stroke-width="1" opacity="1" d="M 70.5 82 L 71 90.5 L 70 90.5 L 70.5 82 Z " /><path fill="rgb(75,88,97)" stroke="rgb(75,88,97)" stroke-width="1" opacity="1" d="M 92.5 84 L 91.5 86 L 92.5 84 Z " /><path fill="rgb(75,88,97)" stroke="rgb(75,88,97)" stroke-width="1" opacity="1" d="M 90.5 87 L 91 89.5 L 90 89.5 L 90.5 87 Z " /><path fill="rgb(75,88,97)" stroke="rgb(75,88,97)" stroke-width="1" opacity="1" d="M 100.5 90 L 99.5 92 L 100.5 90 Z " /><path fill="rgb(75,88,97)" stroke="rgb(75,88,97)" stroke-width="1" opacity="1" d="M 40.5 92 L 53 92.5 L 40.5 93 L 40.5 92 Z " /><path fill="rgb(75,88,97)" stroke="rgb(75,88,97)" stroke-width="1" opacity="1" d="M 55.5 92 L 68 92.5 L 55.5 93 L 55.5 92 Z " /><path fill="rgb(75,88,97)" stroke="rgb(75,88,97)" stroke-width="1" opacity="1" d="M 71.5 92 L 84 92.5 L 71 93 L 70.5 100 L 70 93.5 L 71.5 92 Z " /><path fill="rgb(75,88,97)" stroke="rgb(75,88,97)" stroke-width="1" opacity="1" d="M 67.5 103 L 68 110.5 L 67 110.5 L 67.5 103 Z " /><path fill="rgb(75,88,97)" stroke="rgb(75,88,97)" stroke-width="1" opacity="1" d="M 74.5 103 L 75 106 L 79 106.5 L 75.5 107 Q 73 106 74.5 103 Z " /><path fill="rgb(75,88,97)" stroke="rgb(75,88,97)" stroke-width="1" opacity="1" d="M 44.5 106 L 49 106.5 L 44.5 107 L 44.5 106 Z " /></svg>